HIERARCHY
ROOT Hips
{
  OFFSET -912.277 97.1368 -587.983
  CHANNELS 6 Xposition Yposition Zposition Zrotation Xrotation Yrotation
  JOINT LeftUpLeg
  {
    OFFSET 8.9458 -8.66707 0.101652
    CHANNELS 3 Zrotation Xrotation Yrotation
    JOINT LeftLeg
    {
      OFFSET 0 -44.4227 1.3727
      CHANNELS 3 Zrotation Xrotation Yrotation
      JOINT LeftFoot
      {
        OFFSET -0.253549 -42.0924 -1.46059
        CHANNELS 3 Zrotation Xrotation Yrotation
        JOINT LeftToes
        {
          OFFSET -0.04 -4.41509 8.4991
          CHANNELS 3 Zrotation Xrotation Yrotation
          End Site
          {
            OFFSET 0.08 -0.047448 9.77979
          }
        }
      }
    }
  }
  JOINT RightUpLeg
  {
    OFFSET -8.9458 -8.66707 0.101652
    CHANNELS 3 Zrotation Xrotation Yrotation
    JOINT RightLeg
    {
      OFFSET 0 -44.4227 1.3727
      CHANNELS 3 Zrotation Xrotation Yrotation
      JOINT RightFoot
      {
        OFFSET 0.253549 -42.0924 -1.46059
        CHANNELS 3 Zrotation Xrotation Yrotation
        JOINT RightToes
        {
          OFFSET 0.04 -4.41509 8.4991
          CHANNELS 3 Zrotation Xrotation Yrotation
          End Site
          {
            OFFSET -0.08 -0.137448 9.77979
          }
        }
      }
    }
  }
  JOINT Spine
  {
    OFFSET 0 11.8905 0
    CHANNELS 3 Zrotation Xrotation Yrotation
    JOINT Spine1
    {
      OFFSET 0 25.6574 0.127663
      CHANNELS 3 Zrotation Xrotation Yrotation
      JOINT HEad
      {
        OFFSET 0 8.73416 0.011341
        CHANNELS 3 Zrotation Xrotation Yrotation
        End Site
        {
          OFFSET -0.29 12.7742 2.51395
        }
      }
      JOINT LeftShoulder1
      {
        OFFSET 8.99 -0.362252 -0.22
        CHANNELS 3 Zrotation Xrotation Yrotation
        JOINT LeftArm
        {
          OFFSET 10.2827 -0.00338 0.322123
          CHANNELS 3 Zrotation Xrotation Yrotation
          JOINT LeftForeArm
          {
            OFFSET 32.7669 0.099144 -1.42434
            CHANNELS 3 Zrotation Xrotation Yrotation
            JOINT LeftHand
            {
              OFFSET 27.5643 0.085362 1.02216
              CHANNELS 3 Zrotation Xrotation Yrotation
              End Site
              {
                OFFSET 16.7443 -0.6 1.50291
              }
            }
          }
        }
      }
      JOINT RightShoulder
      {
        OFFSET -8.99 -0.362252 -0.22
        CHANNELS 3 Zrotation Xrotation Yrotation
        JOINT RightArm
        {
          OFFSET -10.2827 -0.00338 0.322123
          CHANNELS 3 Zrotation Xrotation Yrotation
          JOINT RightForeArm
          {
            OFFSET -32.8971 0.099144 -1.42434
            CHANNELS 3 Zrotation Xrotation Yrotation
            JOINT RightHand
            {
              OFFSET -27.4921 0.085362 1.02216
              CHANNELS 3 Zrotation Xrotation Yrotation
              End Site
              {
                OFFSET -16.6312 -0.6 1.50291
              }
            }
          }
        }
      }
    }
  }
}
MOTION
Frames:	10
Frame Time:	0.0166667
-897.869 93.4287 -598.8 -14.2329 -3.89898 -82.0713 11.9276 -19.7345 14.7988 22.5253 46.0148 -20.4468 -6.26211 -1.47967 -0.379251 -1.18446e-009 1.5602e-007 -4.87131e-009 -10.6382 -24.4423 -4.24873 11.0414 57.6393 -16.532 -1.29278 -0.334223 -0.280116 0.0462048 0.000533403 0.662642 20.8918 10.2928 -12.2055 -0.0233962 0.0919181 0.0820928 -17.6526 42.5885 24.5045 3.18055e-015 -4.96962e-017 9.93923e-017 161.198 -73.5578 148.428 -74.6958 56.525 -50.1219 6.67568 20.1633 -5.74579 21.2319 11.8638 11.6823 52.115 -32.4359 66.8064 40.2308 51.0413 80.7621 -6.57217 18.6209 2.79883 
-896.617 92.3116 -600.606 -13.6571 -3.70785 -83.4891 10.3014 -19.9637 13.1533 24.5702 44.2297 -19.5788 -0.877664 -2.0838 -0.075787 -1.18446e-009 1.5602e-007 -4.87132e-009 -13.7582 -25.6812 -6.42273 10.1579 64.3068 -13.5146 -0.609237 0.447543 -0.247904 0.0462048 0.000533403 0.662642 18.8507 13.4853 -9.14428 -0.00724587 0.0728478 0.0905219 -18.1848 39.0071 24.959 6.36111e-015 -1.98785e-016 -0 159.727 -70.2509 152.348 -78.6761 57.9826 -50.5077 9.29824 11.0315 8.58319 23.664 9.58808 11.7877 50.9434 -32.0772 66.3988 40.4814 51.1772 80.8703 -6.7662 18.5197 3.24002 
-895.449 91.0661 -602.601 -13.1389 -3.71397 -84.4589 8.91369 -20.2725 11.4961 26.2971 42.7196 -18.8038 4.83472 -2.60873 0.335199 -1.18446e-009 1.5602e-007 -4.87132e-009 -15.9834 -26.053 -8.07079 5.3227 71.2466 -5.40288 -10.8565 1.5454 -1.11659 0.0462048 0.000533403 0.662642 16.3895 16.7663 -4.81922 0.00666409 0.0487378 0.090311 -18.8057 35.2169 24.5815 0 0 -0 149.82 -68.8201 148.499 -80.2675 61.1688 -54.3438 7.85568 16.3619 -1.82979 26.3194 6.51181 10.8558 50.1702 -31.723 65.8452 40.616 51.7378 81.2839 -7.14219 18.1115 3.37377 
-894.263 89.9319 -604.744 -12.6533 -3.89952 -85.0267 8.08528 -20.3447 9.99604 24.4858 41.5126 -15.0939 13.0763 -2.72728 0.751714 -1.18447e-009 1.5602e-007 -4.87132e-009 -19.5507 -25.398 -8.46435 -8.72652 75.806 12.1673 0.0953173 1.60638 0.0686355 0.0462048 0.000533403 0.662642 13.6943 19.1466 -0.56067 0.0271095 -0.0189098 -0.0104311 -20.8769 31.7841 25.2812 -1.59028e-015 1.19271e-015 1.59028e-015 149.734 -67.5683 151.689 -85.0655 58.9042 -49.6557 6.19143 17.6409 0.523508 28.6286 3.98389 9.91573 49.8334 -31.3793 65.2155 48.9274 53.1253 77.0167 -8.62117 22.9567 2.42643 
-893.087 88.7915 -606.939 -12.1636 -4.23732 -85.2481 7.92963 -20.4054 8.7112 20.5241 40.2974 -9.59535 23.0034 -2.60494 1.19868 -1.18446e-009 1.5602e-007 -4.87131e-009 -21.852 -23.7534 -7.96358 -27.9501 76.0329 35.243 2.66455 2.16772 -0.29485 0.0462048 0.000533403 0.662642 11.2251 20.8159 3.1091 0.0253993 -0.0238497 -0.0146012 -24.4103 28.4599 27.0551 -1.59028e-015 0 -1.59028e-015 151.249 -67.1344 155.201 -87.6576 57.463 -47.7522 5.49578 22.4967 -7.20234 30.5317 1.86785 9.27094 49.6904 -31.0569 64.5727 53.533 53.963 74.5503 -4.65151 7.49715 7.8517 
-891.913 87.7046 -609.218 -11.6187 -4.67336 -85.1892 8.28897 -20.4446 7.6296 17.5466 38.2882 -5.50972 32.2342 -2.06375 1.42677 -1.18445e-009 1.5602e-007 -4.87131e-009 -23.8831 -21.0536 -6.35417 -37.5477 72.4743 49.1752 10.4736 2.0249 -0.161341 0.0462048 0.000533403 0.662642 9.05377 21.8856 6.21667 0.0231585 -0.0232682 -0.0146012 -27.7054 25.6843 28.3833 1.10348e-031 -1.98785e-015 3.18055e-015 152.799 -67.2194 158.152 -88.9986 56.7279 -47.474 5.24157 16.3539 14.1724 31.9055 0.192468 8.78958 49.9485 -30.6643 64.1109 55.7463 54.5468 73.3012 -6.98974 17.7797 5.55664 
-890.727 86.6782 -611.485 -10.9739 -5.1469 -84.9125 8.94986 -20.4341 6.74904 14.9705 35.6748 -2.36915 41.2719 -1.30279 1.36364 -1.18446e-009 1.5602e-007 -4.87132e-009 -24.8153 -17.4525 -4.09628 -34.9268 66.1581 52.377 11.8991 1.69413 -0.234396 0.0462048 0.000533403 0.662642 7.21868 22.4414 8.78496 0.0206409 -0.0206093 -0.0146012 -30.735 23.391 29.4474 1.59028e-015 -1.98785e-015 -0 153.689 -67.6128 160.244 -89.742 56.6656 -48.0914 6.58419 20.422 -1.91662 32.4157 -1.15423 8.07333 52.3582 -26.5457 64.1067 51.8735 55.1684 74.4533 -6.1905 13.738 6.15991 
-889.533 85.6006 -613.853 -10.2043 -5.56693 -84.4754 9.99366 -20.7196 6.06036 13.0717 32.9953 -0.354024 49.5473 -0.532865 1.08981 -1.18446e-009 1.5602e-007 -4.87132e-009 -25.7288 -13.1355 -1.10622 -26.3852 59.1611 47.7862 17.4473 0.79663 -0.146574 0.0462048 0.000533403 0.662642 5.75897 22.5801 10.8627 0.0177814 -0.0172397 -0.0146012 -33.431 21.4679 30.3211 3.18055e-015 4.77083e-015 -0 154.402 -68.1977 162.029 -89.7278 56.8193 -48.98 5.28723 19.136 8.88072 32.4092 -2.12181 7.41718 54.3883 -24.2202 64.2571 49.6086 55.4455 75.5863 -7.11118 19.0187 4.54544 
-888.349 84.6323 -616.229 -9.33692 -5.89615 -83.9343 11.2474 -21.0498 5.55641 11.3119 30.0297 0.951695 57.3807 0.292997 0.555991 -1.18446e-009 1.5602e-007 -4.87131e-009 -25.7683 -8.45751 2.17878 -18.2489 52.1032 40.6258 16.2547 0.0242666 0.0326014 0.0462048 0.000533403 0.662642 4.65126 22.4196 12.5059 0.0142164 -0.0136359 -0.0146012 -35.7485 19.8046 31.0572 1.59028e-015 1.59028e-015 -3.18055e-015 154.602 -68.7455 163.316 -89.6442 57.1279 -49.9631 6.28979 20.9115 -0.767158 32.0709 -2.69465 6.79812 56.269 -22.9536 64.7082 48.4564 55.6145 76.4208 -6.22731 16.4728 4.41169 
-887.196 83.6957 -618.653 -8.41932 -6.08911 -83.3213 12.6451 -21.4266 5.20623 9.69164 26.9476 1.575 64.727 1.10134 -0.178033 -1.18446e-009 1.5602e-007 -4.87132e-009 -25.4495 -3.55947 5.83953 -11.9744 44.7544 32.6344 16.6999 -1.22979 0.24594 0.0462048 0.000533403 0.662642 3.88935 22.0713 13.7489 0.0111326 -0.0099653 -0.0146012 -37.6742 18.2947 31.6862 -1.59028e-015 3.97569e-016 -0 154.588 -69.2193 164.499 -89.4795 57.4767 -50.6643 5.74848 19.6183 5.52898 31.3574 -2.93664 6.0758 58.3063 -22.0941 65.5089 48.0213 55.7899 76.8038 -6.48127 19.2478 3.08065 
